<svg width="141" height="35" viewBox="0 0 141 35" fill="none" xmlns="http://www.w3.org/2000/svg">
<path d="M2.63697 1.5893C3.80867 0.731428 5.35607 0.30249 7.27919 0.30249C9.2023 0.30249 10.7433 0.737222 11.9023 1.60669C13.074 2.46456 13.6598 3.67602 13.6598 5.24106V7.9538C13.6598 9.54202 13.0804 10.7535 11.9214 11.5882C10.7752 12.4113 9.22777 12.8228 7.27919 12.8228C5.3306 12.8228 3.77683 12.4113 2.61787 11.5882C1.47164 10.7535 0.898529 9.54202 0.898529 7.9538V5.24106C0.898529 3.66443 1.47801 2.44718 2.63697 1.5893ZM6.24758 9.0841C6.5023 9.31596 6.84617 9.43189 7.27919 9.43189C7.7122 9.43189 8.05607 9.31596 8.31079 9.0841C8.56551 8.85225 8.69286 8.49866 8.69286 8.02335V5.10195C8.69286 4.63824 8.56551 4.29045 8.31079 4.05859C8.05607 3.81514 7.7122 3.69341 7.27919 3.69341C6.84617 3.69341 6.5023 3.81514 6.24758 4.05859C5.99287 4.29045 5.86551 4.63824 5.86551 5.10195V8.02335C5.86551 8.49866 5.99287 8.85225 6.24758 9.0841Z" fill="black"/>
<path d="M23.8195 0.476384H27.2772C27.4173 0.476384 27.5383 0.522753 27.6402 0.615496C27.7421 0.708239 27.793 0.818374 27.793 0.945896V12.1794C27.793 12.3069 27.7421 12.4171 27.6402 12.5098C27.5383 12.6026 27.4173 12.6489 27.2772 12.6489H24.2589C23.9277 12.6489 23.6666 12.5156 23.4756 12.249L20.2471 7.81469V12.1794C20.2471 12.3069 20.1961 12.4171 20.0942 12.5098C19.9923 12.6026 19.8714 12.6489 19.7313 12.6489H16.2735C16.1334 12.6489 16.0124 12.6026 15.9105 12.5098C15.8086 12.4171 15.7577 12.3069 15.7577 12.1794V0.945896C15.7577 0.818374 15.8086 0.708239 15.9105 0.615496C16.0124 0.522753 16.1334 0.476384 16.2735 0.476384H19.2919C19.6485 0.476384 19.9096 0.609704 20.0751 0.87634L23.3037 5.69319V0.945896C23.3037 0.818374 23.3546 0.708239 23.4565 0.615496C23.5584 0.522753 23.6794 0.476384 23.8195 0.476384Z" fill="black"/>
<path d="M30.1192 0.476384H41.314C41.4541 0.476384 41.5751 0.522753 41.677 0.615496C41.7789 0.708239 41.8298 0.818374 41.8298 0.945896V3.74558C41.8298 3.8731 41.7789 3.98323 41.677 4.07598C41.5751 4.16872 41.4541 4.2151 41.314 4.2151H38.1428V12.1794C38.1428 12.3069 38.0919 12.4171 37.99 12.5098C37.8881 12.6026 37.7671 12.6489 37.627 12.6489H33.8063C33.6662 12.6489 33.5452 12.6026 33.4433 12.5098C33.3414 12.4171 33.2905 12.3069 33.2905 12.1794V4.2151H30.1192C29.9791 4.2151 29.8581 4.16872 29.7563 4.07598C29.6544 3.98323 29.6034 3.8731 29.6034 3.74558V0.945896C29.6034 0.818374 29.6544 0.708239 29.7563 0.615496C29.8581 0.522753 29.9791 0.476384 30.1192 0.476384Z" fill="black"/>
<path d="M52.035 0.476384H55.7793C55.9194 0.476384 56.0404 0.522753 56.1423 0.615496C56.2442 0.708239 56.2951 0.818374 56.2951 0.945896V12.1794C56.2951 12.3069 56.2442 12.4171 56.1423 12.5098C56.0404 12.6026 55.9194 12.6489 55.7793 12.6489H52.035C51.8949 12.6489 51.7739 12.6026 51.672 12.5098C51.5701 12.4171 51.5192 12.3069 51.5192 12.1794V8.42331H48.4244V12.1794C48.4244 12.3069 48.3734 12.4171 48.2715 12.5098C48.1696 12.6026 48.0487 12.6489 47.9086 12.6489H44.1642C44.0241 12.6489 43.9031 12.6083 43.8013 12.5272C43.6994 12.4345 43.6484 12.3185 43.6484 12.1794V0.945896C43.6484 0.818374 43.6994 0.708239 43.8013 0.615496C43.9031 0.522753 44.0241 0.476384 44.1642 0.476384H47.9086C48.0487 0.476384 48.1696 0.522753 48.2715 0.615496C48.3734 0.708239 48.4244 0.818374 48.4244 0.945896V4.59766H51.5192V0.945896C51.5192 0.818374 51.5701 0.708239 51.672 0.615496C51.7739 0.522753 51.8949 0.476384 52.035 0.476384Z" fill="black"/>
<path d="M63.3634 9.258H69.2473C69.3874 9.258 69.5084 9.30437 69.6103 9.39712C69.7122 9.48986 69.7631 9.59999 69.7631 9.72751V12.1794C69.7631 12.3069 69.7122 12.4171 69.6103 12.5098C69.5084 12.6026 69.3874 12.6489 69.2473 12.6489H59.2943C59.1542 12.6489 59.0332 12.6026 58.9313 12.5098C58.8294 12.4171 58.7785 12.3069 58.7785 12.1794V0.945896C58.7785 0.818374 58.8294 0.708239 58.9313 0.615496C59.0332 0.522753 59.1542 0.476384 59.2943 0.476384H69.0945C69.2346 0.476384 69.3556 0.522753 69.4575 0.615496C69.5593 0.708239 69.6103 0.818374 69.6103 0.945896V3.39779C69.6103 3.52532 69.5593 3.63544 69.4575 3.72819C69.3556 3.82093 69.2346 3.86731 69.0945 3.86731H63.3634V4.96283H68.6742C68.8143 4.96283 68.9353 5.00921 69.0372 5.10195C69.1391 5.19469 69.19 5.30482 69.19 5.43234V7.69295C69.19 7.82048 69.1391 7.93061 69.0372 8.02335C68.9353 8.1161 68.8143 8.16247 68.6742 8.16247H63.3634V9.258Z" fill="black"/>
<path d="M80.7883 0.476388H84.5327C84.6728 0.476388 84.7938 0.522759 84.8957 0.615502C84.9976 0.708246 85.0485 0.818378 85.0485 0.9459V12.1794C85.0485 12.3069 84.9976 12.4171 84.8957 12.5098C84.7938 12.6026 84.6728 12.6489 84.5327 12.6489H80.7883C80.6483 12.6489 80.5273 12.6026 80.4254 12.5098C80.3235 12.4171 80.2726 12.3069 80.2726 12.1794V8.42331H77.1777V12.1794C77.1777 12.3069 77.1268 12.4171 77.0249 12.5098C76.923 12.6026 76.802 12.6489 76.6619 12.6489H72.9176C72.7775 12.6489 72.6565 12.6083 72.5546 12.5272C72.4527 12.4345 72.4018 12.3185 72.4018 12.1794V0.9459C72.4018 0.818378 72.4527 0.708246 72.5546 0.615502C72.6565 0.522759 72.7775 0.476388 72.9176 0.476388H76.6619C76.802 0.476388 76.923 0.522759 77.0249 0.615502C77.1268 0.708246 77.1777 0.818378 77.1777 0.9459V4.59766H80.2726V0.9459C80.2726 0.818378 80.3235 0.708246 80.4254 0.615502C80.5273 0.522759 80.6483 0.476388 80.7883 0.476388Z" fill="black"/>
<path d="M88.5479 1.5893C89.7196 0.731428 91.267 0.30249 93.1902 0.30249C95.1133 0.30249 96.6543 0.737222 97.8133 1.60669C98.985 2.46456 99.5708 3.67602 99.5708 5.24106V7.9538C99.5708 9.54202 98.9913 10.7535 97.8324 11.5882C96.6861 12.4113 95.1387 12.8228 93.1902 12.8228C91.2416 12.8228 89.6878 12.4113 88.5288 11.5882C87.3826 10.7535 86.8095 9.54202 86.8095 7.9538V5.24106C86.8095 3.66443 87.389 2.44718 88.5479 1.5893ZM92.1586 9.0841C92.4133 9.31596 92.7571 9.43189 93.1902 9.43189C93.6232 9.43189 93.967 9.31596 94.2218 9.0841C94.4765 8.85225 94.6038 8.49866 94.6038 8.02335V5.10195C94.6038 4.63824 94.4765 4.29045 94.2218 4.05859C93.967 3.81514 93.6232 3.69341 93.1902 3.69341C92.7571 3.69341 92.4133 3.81514 92.1586 4.05859C91.9038 4.29045 91.7765 4.63824 91.7765 5.10195V8.02335C91.7765 8.49866 91.9038 8.85225 92.1586 9.0841Z" fill="black"/>
<path d="M109.597 0.476384H113.341C113.481 0.476384 113.602 0.522753 113.704 0.615496C113.806 0.708239 113.857 0.818374 113.857 0.945896V7.93641C113.857 9.55942 113.303 10.7825 112.195 11.6056C111.087 12.4171 109.578 12.8228 107.667 12.8228C105.77 12.8228 104.26 12.4171 103.14 11.6056C102.032 10.7941 101.478 9.57101 101.478 7.93641V0.945896C101.478 0.818374 101.529 0.708239 101.63 0.615496C101.732 0.522753 101.853 0.476384 101.993 0.476384H105.738C105.878 0.476384 105.999 0.522753 106.101 0.615496C106.203 0.708239 106.254 0.818374 106.254 0.945896V7.98858C106.254 8.88123 106.725 9.32755 107.667 9.32755C108.61 9.32755 109.081 8.88123 109.081 7.98858V0.945896C109.081 0.818374 109.132 0.708239 109.234 0.615496C109.336 0.522753 109.457 0.476384 109.597 0.476384Z" fill="black"/>
<path d="M115.802 4.30204C115.802 3.11956 116.337 2.15735 117.407 1.41541C118.489 0.673463 119.903 0.30249 121.648 0.30249C123.405 0.30249 124.838 0.690853 125.946 1.46758C127.067 2.2443 127.627 3.0558 127.627 3.90208C127.627 4.00642 127.583 4.09916 127.493 4.18031C127.417 4.24987 127.328 4.28465 127.226 4.28465H123.405C123.112 4.28465 122.845 4.18611 122.603 3.98903C122.361 3.79195 122.036 3.69341 121.628 3.69341C121.017 3.69341 120.712 3.85571 120.712 4.18031C120.712 4.35421 120.858 4.49911 121.151 4.61504C121.457 4.73097 122.017 4.83531 122.832 4.92806C124.73 5.14832 126.08 5.55407 126.882 6.14531C127.697 6.72495 128.105 7.61181 128.105 8.80587C128.105 9.98835 127.506 10.9564 126.309 11.7099C125.124 12.4518 123.571 12.8228 121.648 12.8228C119.724 12.8228 118.215 12.4634 117.12 11.7447C116.025 11.0259 115.477 10.1507 115.477 9.11889C115.477 9.01455 115.515 8.9276 115.592 8.85804C115.681 8.77689 115.783 8.73632 115.897 8.73632H119.527C119.795 8.73632 120.087 8.85225 120.406 9.0841C120.737 9.31596 121.189 9.43189 121.762 9.43189C122.717 9.43189 123.195 9.26959 123.195 8.94499C123.195 8.73632 123.023 8.57981 122.679 8.47548C122.335 8.35955 121.686 8.24362 120.731 8.12769C117.445 7.73353 115.802 6.45832 115.802 4.30204Z" fill="black"/>
<path d="M134.499 9.258H140.383C140.523 9.258 140.644 9.30437 140.746 9.39712C140.848 9.48986 140.899 9.59999 140.899 9.72751V12.1794C140.899 12.3069 140.848 12.4171 140.746 12.5098C140.644 12.6026 140.523 12.6489 140.383 12.6489H130.43C130.29 12.6489 130.169 12.6026 130.067 12.5098C129.965 12.4171 129.914 12.3069 129.914 12.1794V0.945896C129.914 0.818374 129.965 0.708239 130.067 0.615496C130.169 0.522753 130.29 0.476384 130.43 0.476384H140.23C140.37 0.476384 140.491 0.522753 140.593 0.615496C140.695 0.708239 140.746 0.818374 140.746 0.945896V3.39779C140.746 3.52532 140.695 3.63544 140.593 3.72819C140.491 3.82093 140.37 3.86731 140.23 3.86731H134.499V4.96283H139.81C139.95 4.96283 140.071 5.00921 140.173 5.10195C140.274 5.19469 140.325 5.30482 140.325 5.43234V7.69295C140.325 7.82048 140.274 7.93061 140.173 8.02335C140.071 8.1161 139.95 8.16247 139.81 8.16247H134.499V9.258Z" fill="black"/>
<path d="M14.8732 30.3952L11.1396 18.6753H13.065L15.3253 26.0086C15.3922 26.1872 15.4536 26.3993 15.5094 26.6449C15.5652 26.8792 15.6155 27.1192 15.6601 27.3648C15.7048 27.6103 15.7438 27.8392 15.7773 28.0512C15.822 28.2633 15.861 28.4363 15.8945 28.5703L15.409 28.5535C15.5764 27.9619 15.7048 27.5043 15.7941 27.1806C15.8945 26.8569 15.9726 26.6114 16.0285 26.4439C16.0843 26.2653 16.1345 26.1147 16.1791 25.9919L18.2887 20.7012H19.9128L21.9554 25.9919C22.067 26.2598 22.1619 26.5277 22.24 26.7955C22.3293 27.0523 22.4074 27.3146 22.4744 27.5824C22.5414 27.8392 22.6139 28.1126 22.6921 28.4028L22.2568 28.52C22.3126 28.2187 22.3516 27.9843 22.374 27.8168C22.4074 27.6383 22.4353 27.4932 22.4577 27.3815C22.48 27.2699 22.5023 27.1639 22.5246 27.0634C22.547 26.9518 22.5804 26.8123 22.6251 26.6449C22.6809 26.4774 22.7535 26.2486 22.8427 25.9584L25.0695 18.6753H27.0117L23.2781 30.3952H22.0224L18.9249 23.0619L19.0756 23.1289L16.0954 30.3952H14.8732Z" fill="black"/>
<path d="M32.2974 30.5627C31.3933 30.5627 30.5897 30.3729 29.8865 29.9934C29.1944 29.6027 28.6475 29.0725 28.2457 28.4028C27.855 27.7331 27.6597 26.963 27.6597 26.0923C27.6597 25.4003 27.7713 24.7697 27.9945 24.2004C28.2178 23.6312 28.5247 23.14 28.9154 22.7271C29.3172 22.3029 29.7916 21.9792 30.3385 21.756C30.8966 21.5216 31.4994 21.4044 32.1467 21.4044C32.716 21.4044 33.2462 21.516 33.7373 21.7392C34.2284 21.9513 34.6526 22.2471 35.0098 22.6266C35.3781 23.0061 35.6571 23.4582 35.8469 23.9828C36.0478 24.4962 36.1427 25.0599 36.1315 25.6738L36.1148 26.4105H28.9321L28.5471 25.0375H34.6247L34.3735 25.3222V24.9203C34.34 24.552 34.2173 24.2227 34.0052 23.9325C33.7931 23.6423 33.5252 23.4135 33.2015 23.2461C32.8778 23.0786 32.5262 22.9949 32.1467 22.9949C31.544 22.9949 31.0361 23.1121 30.6232 23.3465C30.2102 23.5698 29.8976 23.9046 29.6856 24.3511C29.4735 24.7864 29.3674 25.3278 29.3674 25.9751C29.3674 26.589 29.4958 27.1248 29.7525 27.5824C30.0093 28.0289 30.372 28.3749 30.8408 28.6205C31.3096 28.8661 31.851 28.9888 32.4649 28.9888C32.9002 28.9888 33.302 28.9163 33.6703 28.7712C34.0498 28.6261 34.4572 28.3638 34.8925 27.9843L35.7632 29.2065C35.4953 29.4744 35.166 29.7088 34.7754 29.9097C34.3958 30.1106 33.9884 30.2724 33.5531 30.3952C33.129 30.5068 32.7104 30.5627 32.2974 30.5627Z" fill="black"/>
<path d="M46.6327 34.2461C46.0077 34.2461 45.3826 34.1456 44.7576 33.9447C44.1437 33.7549 43.647 33.5038 43.2675 33.1913L43.9037 31.8518C44.1269 32.0193 44.3892 32.1644 44.6906 32.2872C44.992 32.4211 45.3101 32.5216 45.6449 32.5885C45.9798 32.6667 46.3091 32.7057 46.6327 32.7057C47.2466 32.7057 47.7601 32.6053 48.1731 32.4044C48.5861 32.2034 48.8986 31.9077 49.1107 31.517C49.3227 31.1263 49.4288 30.6408 49.4288 30.0604V28.3694L49.613 28.4866C49.5571 28.8326 49.373 29.1674 49.0604 29.4911C48.7591 29.8036 48.3796 30.0604 47.9219 30.2613C47.4643 30.4622 46.9955 30.5627 46.5155 30.5627C45.6784 30.5627 44.9306 30.3673 44.272 29.9767C43.6246 29.5748 43.1112 29.0335 42.7317 28.3526C42.3522 27.6606 42.1624 26.8737 42.1624 25.9919C42.1624 25.1101 42.3466 24.3288 42.7149 23.6479C43.0944 22.9559 43.6079 22.4145 44.2553 22.0239C44.9138 21.622 45.6505 21.4211 46.4653 21.4211C46.8002 21.4211 47.1239 21.4658 47.4364 21.5551C47.7489 21.6332 48.0391 21.7504 48.307 21.9067C48.5749 22.0518 48.8149 22.2136 49.027 22.3922C49.239 22.5708 49.412 22.7605 49.546 22.9614C49.6799 23.1624 49.7636 23.3521 49.7971 23.5307L49.4288 23.6646V21.6053H51.1533V29.8595C51.1533 30.5627 51.0472 31.1821 50.8352 31.7179C50.6343 32.2648 50.3385 32.7225 49.9478 33.0908C49.5571 33.4703 49.0828 33.7549 48.5247 33.9447C47.9666 34.1456 47.3359 34.2461 46.6327 34.2461ZM46.6997 28.9721C47.2466 28.9721 47.7322 28.8437 48.1563 28.587C48.5805 28.3303 48.9098 27.9787 49.1442 27.5322C49.3786 27.0857 49.4958 26.5723 49.4958 25.9919C49.4958 25.4115 49.373 24.898 49.1274 24.4516C48.893 23.9939 48.5637 23.6367 48.1396 23.38C47.7266 23.1233 47.2466 22.9949 46.6997 22.9949C46.1639 22.9949 45.684 23.1289 45.2598 23.3968C44.8469 23.6535 44.5176 24.0107 44.272 24.4683C44.0376 24.9148 43.9204 25.4226 43.9204 25.9919C43.9204 26.5611 44.0376 27.0746 44.272 27.5322C44.5176 27.9787 44.8469 28.3303 45.2598 28.587C45.684 28.8437 46.1639 28.9721 46.6997 28.9721Z" fill="black"/>
<path d="M53.8558 30.3952V21.6053H55.5803V30.3952H53.8558ZM54.6929 19.6631C54.3246 19.6631 54.04 19.5683 53.8391 19.3785C53.6381 19.1888 53.5377 18.9209 53.5377 18.5749C53.5377 18.2512 53.6381 17.9889 53.8391 17.7879C54.0511 17.587 54.3358 17.4866 54.6929 17.4866C55.0613 17.4866 55.3459 17.5814 55.5468 17.7712C55.7477 17.9609 55.8482 18.2288 55.8482 18.5749C55.8482 18.8985 55.7421 19.1608 55.5301 19.3618C55.3292 19.5627 55.0501 19.6631 54.6929 19.6631Z" fill="black"/>
<path d="M61.1108 30.3952L57.3939 21.6053H59.2523L61.9312 28.1852L61.613 28.3359L64.4761 21.6053H66.2508L62.3497 30.3952H61.1108Z" fill="black"/>
<path d="M71.6854 30.5627C70.7813 30.5627 69.9776 30.3729 69.2744 29.9934C68.5824 29.6027 68.0355 29.0725 67.6336 28.4028C67.243 27.7331 67.0476 26.963 67.0476 26.0923C67.0476 25.4003 67.1593 24.7697 67.3825 24.2004C67.6057 23.6312 67.9127 23.14 68.3033 22.7271C68.7052 22.3029 69.1795 21.9792 69.7265 21.756C70.2846 21.5216 70.8873 21.4044 71.5347 21.4044C72.1039 21.4044 72.6341 21.516 73.1253 21.7392C73.6164 21.9513 74.0405 22.2471 74.3977 22.6266C74.766 23.0061 75.0451 23.4582 75.2348 23.9828C75.4358 24.4962 75.5306 25.0599 75.5195 25.6738L75.5027 26.4105H68.3201L67.935 25.0375H74.0126L73.7615 25.3222V24.9203C73.728 24.552 73.6052 24.2227 73.3931 23.9325C73.1811 23.6423 72.9132 23.4135 72.5895 23.2461C72.2658 23.0786 71.9142 22.9949 71.5347 22.9949C70.932 22.9949 70.4241 23.1121 70.0111 23.3465C69.5981 23.5698 69.2856 23.9046 69.0735 24.3511C68.8614 24.7864 68.7554 25.3278 68.7554 25.9751C68.7554 26.589 68.8838 27.1248 69.1405 27.5824C69.3972 28.0289 69.76 28.3749 70.2288 28.6205C70.6976 28.8661 71.2389 28.9888 71.8528 28.9888C72.2881 28.9888 72.6899 28.9163 73.0583 28.7712C73.4378 28.6261 73.8452 28.3638 74.2805 27.9843L75.1511 29.2065C74.8832 29.4744 74.554 29.7088 74.1633 29.9097C73.7838 30.1106 73.3764 30.2724 72.9411 30.3952C72.5169 30.5068 72.0984 30.5627 71.6854 30.5627Z" fill="black"/>
<path d="M83.1744 30.3952V19.3618H84.8989V30.3952H83.1744ZM81.3495 23.2796V21.6053H86.9415V23.2796H81.3495Z" fill="black"/>
<path d="M92.3814 30.5627C91.5219 30.5627 90.7517 30.3673 90.0709 29.9767C89.4012 29.5748 88.871 29.0335 88.4803 28.3526C88.0896 27.6606 87.8943 26.8737 87.8943 25.9919C87.8943 25.1101 88.0896 24.3288 88.4803 23.6479C88.871 22.9559 89.4012 22.4145 90.0709 22.0239C90.7517 21.622 91.5219 21.4211 92.3814 21.4211C93.2297 21.4211 93.9887 21.622 94.6584 22.0239C95.3393 22.4145 95.875 22.9559 96.2657 23.6479C96.6563 24.3288 96.8517 25.1101 96.8517 25.9919C96.8517 26.8737 96.6563 27.6606 96.2657 28.3526C95.875 29.0335 95.3393 29.5748 94.6584 29.9767C93.9887 30.3673 93.2297 30.5627 92.3814 30.5627ZM92.3814 28.9888C92.906 28.9888 93.3748 28.8605 93.7878 28.6038C94.2007 28.3359 94.5244 27.9787 94.7588 27.5322C94.9932 27.0746 95.1049 26.5611 95.0937 25.9919C95.1049 25.4115 94.9932 24.898 94.7588 24.4516C94.5244 23.9939 94.2007 23.6367 93.7878 23.38C93.3748 23.1233 92.906 22.9949 92.3814 22.9949C91.8568 22.9949 91.3824 23.1289 90.9582 23.3968C90.5452 23.6535 90.2216 24.0107 89.9872 24.4683C89.7528 24.9148 89.6411 25.4226 89.6523 25.9919C89.6411 26.5611 89.7528 27.0746 89.9872 27.5322C90.2216 27.9787 90.5452 28.3359 90.9582 28.6038C91.3824 28.8605 91.8568 28.9888 92.3814 28.9888Z" fill="black"/>
<path d="M102.397 30.5627C101.594 30.5627 100.874 30.3673 100.238 29.9767C99.6126 29.5748 99.1159 29.0335 98.7475 28.3526C98.3792 27.6606 98.195 26.8737 98.195 25.9919C98.195 25.1101 98.3736 24.3288 98.7308 23.6479C99.0991 22.9559 99.5958 22.4145 100.221 22.0239C100.846 21.622 101.555 21.4211 102.347 21.4211C102.783 21.4211 103.201 21.4937 103.603 21.6388C104.016 21.7727 104.384 21.9625 104.708 22.208C105.032 22.4424 105.283 22.7047 105.461 22.9949C105.651 23.274 105.746 23.5586 105.746 23.8488L105.244 23.8823V18.0056H106.968V30.3952H105.244V28.3024H105.579C105.579 28.5703 105.489 28.8382 105.311 29.106C105.132 29.3628 104.892 29.6027 104.591 29.826C104.301 30.0492 103.96 30.2278 103.569 30.3617C103.19 30.4957 102.799 30.5627 102.397 30.5627ZM102.632 29.0725C103.156 29.0725 103.62 28.9386 104.022 28.6707C104.423 28.4028 104.736 28.0401 104.959 27.5824C105.193 27.1136 105.311 26.5835 105.311 25.9919C105.311 25.4003 105.193 24.8757 104.959 24.4181C104.736 23.9493 104.423 23.5809 104.022 23.313C103.62 23.0452 103.156 22.9112 102.632 22.9112C102.107 22.9112 101.644 23.0452 101.242 23.313C100.84 23.5809 100.522 23.9493 100.288 24.4181C100.065 24.8757 99.953 25.4003 99.953 25.9919C99.953 26.5835 100.065 27.1136 100.288 27.5824C100.522 28.0401 100.84 28.4028 101.242 28.6707C101.644 28.9386 102.107 29.0725 102.632 29.0725Z" fill="black"/>
<path d="M112.724 30.5627C111.999 30.5627 111.335 30.3617 110.732 29.9599C110.14 29.5581 109.666 29.0112 109.309 28.3191C108.951 27.6271 108.773 26.8458 108.773 25.9751C108.773 25.0934 108.951 24.312 109.309 23.6312C109.677 22.9391 110.168 22.3978 110.782 22.0071C111.407 21.6164 112.105 21.4211 112.875 21.4211C113.333 21.4211 113.751 21.4881 114.131 21.622C114.51 21.756 114.839 21.9457 115.118 22.1913C115.409 22.4257 115.643 22.6991 115.822 23.0117C116.011 23.3242 116.129 23.6591 116.173 24.0162L115.788 23.8823V21.6053H117.529V30.3952H115.788V28.3024L116.19 28.1852C116.123 28.4866 115.983 28.7823 115.771 29.0725C115.57 29.3516 115.308 29.6027 114.984 29.826C114.672 30.0492 114.32 30.2278 113.93 30.3617C113.55 30.4957 113.148 30.5627 112.724 30.5627ZM113.176 28.9721C113.701 28.9721 114.164 28.8437 114.566 28.587C114.968 28.3303 115.28 27.9787 115.503 27.5322C115.738 27.0746 115.855 26.5556 115.855 25.9751C115.855 25.4059 115.738 24.898 115.503 24.4516C115.28 24.0051 114.968 23.6535 114.566 23.3968C114.164 23.14 113.701 23.0117 113.176 23.0117C112.663 23.0117 112.205 23.14 111.803 23.3968C111.413 23.6535 111.1 24.0051 110.866 24.4516C110.643 24.898 110.531 25.4059 110.531 25.9751C110.531 26.5556 110.643 27.0746 110.866 27.5322C111.1 27.9787 111.413 28.3303 111.803 28.587C112.205 28.8437 112.663 28.9721 113.176 28.9721Z" fill="black"/>
<path d="M121.214 34.2461L122.989 30.1441L123.006 31.517L118.619 21.6053H120.628L123.374 28.068C123.43 28.1796 123.497 28.3526 123.575 28.587C123.653 28.8102 123.72 29.0335 123.776 29.2567L123.341 29.3572C123.43 29.1228 123.514 28.8884 123.592 28.654C123.681 28.4196 123.765 28.1852 123.843 27.9508L126.137 21.6053H128.179L124.563 30.3952L123.073 34.2461H121.214Z" fill="black"/>
<path d="M129.502 30.5794C129.134 30.5794 128.849 30.4734 128.648 30.2613C128.447 30.038 128.347 29.7255 128.347 29.3237C128.347 28.9553 128.453 28.654 128.665 28.4196C128.877 28.1852 129.156 28.068 129.502 28.068C129.871 28.068 130.155 28.1796 130.356 28.4028C130.557 28.6149 130.657 28.9219 130.657 29.3237C130.657 29.692 130.551 29.9934 130.339 30.2278C130.127 30.4622 129.848 30.5794 129.502 30.5794Z" fill="black"/>
</svg>
