<svg width="42" height="41" viewBox="0 0 42 41" fill="none" xmlns="http://www.w3.org/2000/svg">
<mask id="path-1-inside-1_51_63" fill="white">
<path d="M33.9008 22.3013C34.9591 22.7927 36.2298 22.3355 36.5805 21.2226C37.5809 18.0476 37.5912 14.6243 36.5813 11.4172C35.3587 7.53456 32.7292 4.24907 29.2088 2.20551C25.6884 0.161942 21.5313 -0.492137 17.5535 0.371638C13.5756 1.23541 10.0642 3.55467 7.70839 6.87423C5.35258 10.1938 4.32246 14.274 4.82022 18.314C5.31797 22.354 7.30765 26.0621 10.3988 28.7105C13.4899 31.359 17.4592 32.7566 21.5278 32.629C24.8885 32.5236 28.1166 31.3838 30.7833 29.3914C31.718 28.693 31.7301 27.3426 30.9169 26.5058V26.5058C30.1037 25.669 28.7741 25.6684 27.8087 26.3238C25.9234 27.6037 23.7015 28.3333 21.3953 28.4056C18.3803 28.5001 15.4387 27.4645 13.148 25.5018C10.8573 23.5391 9.38286 20.7912 9.01399 17.7973C8.64512 14.8034 9.4085 11.7797 11.1543 9.31972C12.9001 6.85972 15.5023 5.141 18.4501 4.50089C21.3979 3.86078 24.4786 4.34549 27.0874 5.8599C29.6962 7.37431 31.6449 9.80906 32.5509 12.6863C33.2439 14.8871 33.2887 17.2252 32.7029 19.4274C32.4029 20.555 32.8425 21.8099 33.9008 22.3013V22.3013Z"/>
</mask>
<path d="M33.9008 22.3013C34.9591 22.7927 36.2298 22.3355 36.5805 21.2226C37.5809 18.0476 37.5912 14.6243 36.5813 11.4172C35.3587 7.53456 32.7292 4.24907 29.2088 2.20551C25.6884 0.161942 21.5313 -0.492137 17.5535 0.371638C13.5756 1.23541 10.0642 3.55467 7.70839 6.87423C5.35258 10.1938 4.32246 14.274 4.82022 18.314C5.31797 22.354 7.30765 26.0621 10.3988 28.7105C13.4899 31.359 17.4592 32.7566 21.5278 32.629C24.8885 32.5236 28.1166 31.3838 30.7833 29.3914C31.718 28.693 31.7301 27.3426 30.9169 26.5058V26.5058C30.1037 25.669 28.7741 25.6684 27.8087 26.3238C25.9234 27.6037 23.7015 28.3333 21.3953 28.4056C18.3803 28.5001 15.4387 27.4645 13.148 25.5018C10.8573 23.5391 9.38286 20.7912 9.01399 17.7973C8.64512 14.8034 9.4085 11.7797 11.1543 9.31972C12.9001 6.85972 15.5023 5.141 18.4501 4.50089C21.3979 3.86078 24.4786 4.34549 27.0874 5.8599C29.6962 7.37431 31.6449 9.80906 32.5509 12.6863C33.2439 14.8871 33.2887 17.2252 32.7029 19.4274C32.4029 20.555 32.8425 21.8099 33.9008 22.3013V22.3013Z" stroke="black" stroke-width="17.2" mask="url(#path-1-inside-1_51_63)"/>
<path fill-rule="evenodd" clip-rule="evenodd" d="M19.4971 13.261C20.5162 12.6588 21.7839 12.6655 22.7966 13.2784L40.359 23.9083C41.3211 24.4906 41.9089 25.5335 41.9089 26.6581V37.0875C41.9089 38.8627 40.4698 40.3018 38.6946 40.3018H3.21425C1.43907 40.3018 0 38.8627 0 37.0875V26.6661C0 25.5302 0.599591 24.4786 1.57717 23.9L5.77278 21.4169L5.76923 21.4109L7.03639 20.6691C7.97756 20.1182 9.18708 20.433 9.74027 21.3728C10.2935 22.3126 9.98158 23.5229 9.04307 24.0784L3.956 27.0891V36.3458H37.9529V27.0762L21.1277 16.8925L16.7067 19.5049C15.7662 20.0607 14.5532 19.7488 13.9975 18.8083C13.4417 17.8678 13.7536 16.6548 14.6941 16.0991L19.4971 13.261Z" fill="black"/>
</svg>
