<svg width="140" height="30" viewBox="0 0 140 30" fill="none" xmlns="http://www.w3.org/2000/svg">
<path d="M1.73844 1.28681C2.91014 0.428938 4.45754 0 6.38066 0C8.30377 0 9.84481 0.434732 11.0038 1.3042C12.1755 2.16207 12.7613 3.37353 12.7613 4.93857V7.65131C12.7613 9.23953 12.1818 10.451 11.0229 11.2857C9.87665 12.1088 8.32924 12.5203 6.38066 12.5203C4.43207 12.5203 2.8783 12.1088 1.71934 11.2857C0.573113 10.451 0 9.23953 0 7.65131V4.93857C0 3.36194 0.579481 2.14469 1.73844 1.28681ZM5.34905 8.78161C5.60377 9.01347 5.94764 9.1294 6.38066 9.1294C6.81368 9.1294 7.15754 9.01347 7.41226 8.78161C7.66698 8.54976 7.79434 8.19617 7.79434 7.72086V4.79946C7.79434 4.33574 7.66698 3.98796 7.41226 3.7561C7.15754 3.51265 6.81368 3.39092 6.38066 3.39092C5.94764 3.39092 5.60377 3.51265 5.34905 3.7561C5.09434 3.98796 4.96698 4.33574 4.96698 4.79946V7.72086C4.96698 8.19617 5.09434 8.54976 5.34905 8.78161Z" fill="black"/>
<path d="M22.9209 0.173894H26.3787C26.5188 0.173894 26.6398 0.220262 26.7417 0.313006C26.8436 0.405749 26.8945 0.515884 26.8945 0.643406V11.8769C26.8945 12.0044 26.8436 12.1146 26.7417 12.2073C26.6398 12.3001 26.5188 12.3464 26.3787 12.3464H23.3603C23.0292 12.3464 22.7681 12.2131 22.5771 11.9465L19.3485 7.5122V11.8769C19.3485 12.0044 19.2976 12.1146 19.1957 12.2073C19.0938 12.3001 18.9728 12.3464 18.8327 12.3464H15.3749C15.2349 12.3464 15.1139 12.3001 15.012 12.2073C14.9101 12.1146 14.8591 12.0044 14.8591 11.8769V0.643406C14.8591 0.515884 14.9101 0.405749 15.012 0.313006C15.1139 0.220262 15.2349 0.173894 15.3749 0.173894H18.3933C18.7499 0.173894 19.011 0.307213 19.1766 0.57385L22.4051 5.3907V0.643406C22.4051 0.515884 22.4561 0.405749 22.558 0.313006C22.6598 0.220262 22.7808 0.173894 22.9209 0.173894Z" fill="black"/>
<path d="M29.2207 0.173894H40.4155C40.5556 0.173894 40.6766 0.220262 40.7785 0.313006C40.8804 0.405749 40.9313 0.515884 40.9313 0.643406V3.44309C40.9313 3.57061 40.8804 3.68074 40.7785 3.77349C40.6766 3.86623 40.5556 3.91261 40.4155 3.91261H37.2443V11.8769C37.2443 12.0044 37.1933 12.1146 37.0914 12.2073C36.9896 12.3001 36.8686 12.3464 36.7285 12.3464H32.9077C32.7676 12.3464 32.6466 12.3001 32.5448 12.2073C32.4429 12.1146 32.3919 12.0044 32.3919 11.8769V3.91261H29.2207C29.0806 3.91261 28.9596 3.86623 28.8577 3.77349C28.7558 3.68074 28.7049 3.57061 28.7049 3.44309V0.643406C28.7049 0.515884 28.7558 0.405749 28.8577 0.313006C28.9596 0.220262 29.0806 0.173894 29.2207 0.173894Z" fill="black"/>
<path d="M51.1364 0.173894H54.8808C55.0209 0.173894 55.1419 0.220262 55.2438 0.313006C55.3456 0.405749 55.3966 0.515884 55.3966 0.643406V11.8769C55.3966 12.0044 55.3456 12.1146 55.2438 12.2073C55.1419 12.3001 55.0209 12.3464 54.8808 12.3464H51.1364C50.9964 12.3464 50.8754 12.3001 50.7735 12.2073C50.6716 12.1146 50.6206 12.0044 50.6206 11.8769V8.12082H47.5258V11.8769C47.5258 12.0044 47.4749 12.1146 47.373 12.2073C47.2711 12.3001 47.1501 12.3464 47.01 12.3464H43.2657C43.1256 12.3464 43.0046 12.3059 42.9027 12.2247C42.8008 12.132 42.7499 12.016 42.7499 11.8769V0.643406C42.7499 0.515884 42.8008 0.405749 42.9027 0.313006C43.0046 0.220262 43.1256 0.173894 43.2657 0.173894H47.01C47.1501 0.173894 47.2711 0.220262 47.373 0.313006C47.4749 0.405749 47.5258 0.515884 47.5258 0.643406V4.29517H50.6206V0.643406C50.6206 0.515884 50.6716 0.405749 50.7735 0.313006C50.8754 0.220262 50.9964 0.173894 51.1364 0.173894Z" fill="black"/>
<path d="M62.4648 8.95551H68.3488C68.4889 8.95551 68.6099 9.00188 68.7118 9.09463C68.8136 9.18737 68.8646 9.2975 68.8646 9.42502V11.8769C68.8646 12.0044 68.8136 12.1146 68.7118 12.2073C68.6099 12.3001 68.4889 12.3464 68.3488 12.3464H58.3957C58.2556 12.3464 58.1346 12.3001 58.0328 12.2073C57.9309 12.1146 57.8799 12.0044 57.8799 11.8769V0.643406C57.8799 0.515884 57.9309 0.405749 58.0328 0.313006C58.1346 0.220262 58.2556 0.173894 58.3957 0.173894H68.196C68.3361 0.173894 68.457 0.220262 68.5589 0.313006C68.6608 0.405749 68.7118 0.515884 68.7118 0.643406V3.0953C68.7118 3.22283 68.6608 3.33295 68.5589 3.4257C68.457 3.51844 68.3361 3.56482 68.196 3.56482H62.4648V4.66034H67.7757C67.9158 4.66034 68.0368 4.70672 68.1386 4.79946C68.2405 4.8922 68.2915 5.00233 68.2915 5.12985V7.39046C68.2915 7.51799 68.2405 7.62812 68.1386 7.72086C68.0368 7.81361 67.9158 7.85998 67.7757 7.85998H62.4648V8.95551Z" fill="black"/>
<path d="M79.8898 0.173897H83.6342C83.7743 0.173897 83.8953 0.220269 83.9971 0.313012C84.099 0.405755 84.15 0.515888 84.15 0.643409V11.8769C84.15 12.0044 84.099 12.1146 83.9971 12.2073C83.8953 12.3001 83.7743 12.3464 83.6342 12.3464H79.8898C79.7497 12.3464 79.6287 12.3001 79.5269 12.2073C79.425 12.1146 79.374 12.0044 79.374 11.8769V8.12082H76.2792V11.8769C76.2792 12.0044 76.2283 12.1146 76.1264 12.2073C76.0245 12.3001 75.9035 12.3464 75.7634 12.3464H72.0191C71.879 12.3464 71.758 12.3059 71.6561 12.2247C71.5542 12.132 71.5033 12.016 71.5033 11.8769V0.643409C71.5033 0.515888 71.5542 0.405755 71.6561 0.313012C71.758 0.220269 71.879 0.173897 72.0191 0.173897H75.7634C75.9035 0.173897 76.0245 0.220269 76.1264 0.313012C76.2283 0.405755 76.2792 0.515888 76.2792 0.643409V4.29517H79.374V0.643409C79.374 0.515888 79.425 0.405755 79.5269 0.313012C79.6287 0.220269 79.7497 0.173897 79.8898 0.173897Z" fill="black"/>
<path d="M87.6494 1.28681C88.8211 0.428938 90.3685 0 92.2916 0C94.2147 0 95.7558 0.434732 96.9147 1.3042C98.0864 2.16207 98.6723 3.37353 98.6723 4.93857V7.65131C98.6723 9.23953 98.0928 10.451 96.9338 11.2857C95.7876 12.1088 94.2402 12.5203 92.2916 12.5203C90.343 12.5203 88.7893 12.1088 87.6303 11.2857C86.4841 10.451 85.911 9.23953 85.911 7.65131V4.93857C85.911 3.36194 86.4904 2.14469 87.6494 1.28681ZM91.26 8.78161C91.5147 9.01347 91.8586 9.1294 92.2916 9.1294C92.7246 9.1294 93.0685 9.01347 93.3232 8.78161C93.5779 8.54976 93.7053 8.19617 93.7053 7.72086V4.79946C93.7053 4.33574 93.5779 3.98796 93.3232 3.7561C93.0685 3.51265 92.7246 3.39092 92.2916 3.39092C91.8586 3.39092 91.5147 3.51265 91.26 3.7561C91.0053 3.98796 90.8779 4.33574 90.8779 4.79946V7.72086C90.8779 8.19617 91.0053 8.54976 91.26 8.78161Z" fill="black"/>
<path d="M108.698 0.173894H112.443C112.583 0.173894 112.704 0.220262 112.805 0.313006C112.907 0.405749 112.958 0.515884 112.958 0.643406V7.63392C112.958 9.25693 112.404 10.48 111.296 11.3031C110.188 12.1146 108.679 12.5203 106.769 12.5203C104.871 12.5203 103.362 12.1146 102.241 11.3031C101.133 10.4916 100.579 9.26852 100.579 7.63392V0.643406C100.579 0.515884 100.63 0.405749 100.732 0.313006C100.834 0.220262 100.955 0.173894 101.095 0.173894H104.839C104.979 0.173894 105.1 0.220262 105.202 0.313006C105.304 0.405749 105.355 0.515884 105.355 0.643406V7.68609C105.355 8.57874 105.826 9.02506 106.769 9.02506C107.711 9.02506 108.182 8.57874 108.182 7.68609V0.643406C108.182 0.515884 108.233 0.405749 108.335 0.313006C108.437 0.220262 108.558 0.173894 108.698 0.173894Z" fill="black"/>
<path d="M114.903 3.99955C114.903 2.81707 115.438 1.85486 116.508 1.11292C117.591 0.370973 119.004 0 120.749 0C122.507 0 123.939 0.388363 125.047 1.16509C126.168 1.94181 126.729 2.75331 126.729 3.59959C126.729 3.70393 126.684 3.79667 126.595 3.87782C126.518 3.94738 126.429 3.98216 126.327 3.98216H122.507C122.214 3.98216 121.946 3.88362 121.704 3.68654C121.462 3.48946 121.138 3.39092 120.73 3.39092C120.119 3.39092 119.813 3.55322 119.813 3.87782C119.813 4.05172 119.959 4.19662 120.252 4.31255C120.558 4.42848 121.118 4.53282 121.934 4.62557C123.831 4.84583 125.181 5.25158 125.983 5.84282C126.799 6.42246 127.206 7.30932 127.206 8.50338C127.206 9.68586 126.608 10.6539 125.41 11.4074C124.226 12.1494 122.672 12.5203 120.749 12.5203C118.826 12.5203 117.317 12.1609 116.221 11.4422C115.126 10.7234 114.579 9.84816 114.579 8.8164C114.579 8.71206 114.617 8.62511 114.693 8.55555C114.782 8.4744 114.884 8.43383 114.999 8.43383H118.629C118.896 8.43383 119.189 8.54976 119.507 8.78161C119.838 9.01347 120.291 9.1294 120.864 9.1294C121.819 9.1294 122.296 8.9671 122.296 8.6425C122.296 8.43383 122.125 8.27732 121.781 8.17299C121.437 8.05706 120.787 7.94113 119.832 7.8252C116.546 7.43104 114.903 6.15583 114.903 3.99955Z" fill="black"/>
<path d="M133.6 8.95551H139.484C139.624 8.95551 139.745 9.00188 139.847 9.09463C139.949 9.18737 140 9.2975 140 9.42502V11.8769C140 12.0044 139.949 12.1146 139.847 12.2073C139.745 12.3001 139.624 12.3464 139.484 12.3464H129.531C129.391 12.3464 129.27 12.3001 129.168 12.2073C129.066 12.1146 129.015 12.0044 129.015 11.8769V0.643406C129.015 0.515884 129.066 0.405749 129.168 0.313006C129.27 0.220262 129.391 0.173894 129.531 0.173894H139.331C139.471 0.173894 139.592 0.220262 139.694 0.313006C139.796 0.405749 139.847 0.515884 139.847 0.643406V3.0953C139.847 3.22283 139.796 3.33295 139.694 3.4257C139.592 3.51844 139.471 3.56482 139.331 3.56482H133.6V4.66034H138.911C139.051 4.66034 139.172 4.70672 139.274 4.79946C139.376 4.8922 139.427 5.00233 139.427 5.12985V7.39046C139.427 7.51799 139.376 7.62812 139.274 7.72086C139.172 7.81361 139.051 7.85998 138.911 7.85998H133.6V8.95551Z" fill="black"/>
<path d="M12.3901 26.2753C12.2614 26.2753 12.1575 26.2451 12.0783 26.1847C12.0091 26.1243 11.9596 26.0381 11.9299 25.926L10.0148 17.6209C10.0049 17.5864 10 17.5563 10 17.5304C10 17.5045 10 17.4873 10 17.4786C10 17.4096 10.0297 17.3493 10.0891 17.2975C10.1485 17.2458 10.2177 17.2199 10.2969 17.2199H11.0689C11.2767 17.2199 11.3955 17.2932 11.4251 17.4398L12.9394 24.1149L14.5427 19.5355C14.5723 19.4579 14.6218 19.3889 14.6911 19.3285C14.7703 19.2595 14.8791 19.225 15.0177 19.225H15.567C15.7154 19.225 15.8243 19.2595 15.8936 19.3285C15.9628 19.3889 16.0074 19.4579 16.0272 19.5355L17.6453 24.1149L19.1447 17.4398C19.1744 17.2932 19.2981 17.2199 19.5158 17.2199H20.2878C20.3669 17.2199 20.4362 17.2458 20.4956 17.2975C20.555 17.3493 20.5847 17.4096 20.5847 17.4786C20.5847 17.4873 20.5797 17.5045 20.5698 17.5304C20.5698 17.5563 20.5698 17.5864 20.5698 17.6209L18.6548 25.926C18.6251 26.0381 18.5707 26.1243 18.4915 26.1847C18.4222 26.2451 18.3232 26.2753 18.1946 26.2753H17.6156C17.4771 26.2753 17.3682 26.2451 17.289 26.1847C17.2099 26.1243 17.1554 26.0467 17.1257 25.9518L15.2849 21.0232L13.4589 25.9518C13.4194 26.0467 13.36 26.1243 13.2808 26.1847C13.2115 26.2451 13.1076 26.2753 12.9691 26.2753H12.3901Z" fill="black"/>
<path d="M25.0872 26.4046C24.0678 26.4046 23.2563 26.133 22.6526 25.5896C22.0489 25.0377 21.7173 24.2874 21.6579 23.3387C21.648 23.2266 21.6431 23.0843 21.6431 22.9118C21.6431 22.7307 21.648 22.5841 21.6579 22.472C21.6975 21.8597 21.8608 21.325 22.1478 20.8679C22.4348 20.4022 22.8258 20.0443 23.3206 19.7942C23.8254 19.5441 24.4142 19.4191 25.0872 19.4191C25.8394 19.4191 26.4678 19.5571 26.9725 19.833C27.4872 20.109 27.8781 20.5014 28.1453 21.0102C28.4125 21.519 28.5461 22.1141 28.5461 22.7954V23.0153C28.5461 23.1102 28.5115 23.1835 28.4422 23.2352C28.3829 23.287 28.3037 23.3129 28.2047 23.3129H23.0682C23.0682 23.3215 23.0682 23.3387 23.0682 23.3646C23.0682 23.3905 23.0682 23.412 23.0682 23.4293C23.088 23.7829 23.1771 24.1149 23.3355 24.4254C23.4938 24.7272 23.7214 24.973 24.0183 25.1627C24.3152 25.3525 24.6715 25.4473 25.0872 25.4473C25.4435 25.4473 25.7404 25.3999 25.9779 25.305C26.2154 25.2102 26.4084 25.1067 26.5569 24.9946C26.7053 24.8738 26.8043 24.7833 26.8538 24.7229C26.9429 24.6108 27.0121 24.5461 27.0616 24.5289C27.1111 24.503 27.1903 24.4901 27.2991 24.4901H28.0117C28.1107 24.4901 28.1899 24.5159 28.2492 24.5677C28.3185 24.6108 28.3482 24.6755 28.3383 24.7617C28.3284 24.8911 28.2492 25.0506 28.1008 25.2404C27.9523 25.4215 27.7396 25.6026 27.4624 25.7837C27.1853 25.9648 26.8488 26.1157 26.453 26.2364C26.0571 26.3486 25.6018 26.4046 25.0872 26.4046ZM23.0682 22.4203H27.1358V22.3815C27.1358 21.9934 27.0517 21.6484 26.8835 21.3466C26.7251 21.0447 26.4926 20.8076 26.1858 20.6351C25.8789 20.454 25.5128 20.3634 25.0872 20.3634C24.6616 20.3634 24.2955 20.454 23.9887 20.6351C23.6917 20.8076 23.4641 21.0447 23.3058 21.3466C23.1474 21.6484 23.0682 21.9934 23.0682 22.3815V22.4203Z" fill="black"/>
<path d="M37.1221 29.1212C36.4491 29.1212 35.8949 29.0436 35.4594 28.8884C35.0338 28.7331 34.6973 28.5434 34.4499 28.3192C34.2124 28.1036 34.0392 27.8836 33.9303 27.6594C33.8314 27.4438 33.7769 27.2713 33.767 27.142C33.7571 27.0557 33.7868 26.9824 33.8561 26.9221C33.9353 26.8617 34.0194 26.8315 34.1085 26.8315H34.8211C34.9101 26.8315 34.9844 26.8488 35.0437 26.8833C35.1031 26.9177 35.1526 26.9911 35.1922 27.1032C35.2516 27.2325 35.3406 27.3748 35.4594 27.5301C35.5782 27.6939 35.7613 27.8319 36.0087 27.944C36.2561 28.0648 36.6025 28.1251 37.0478 28.1251C37.513 28.1251 37.9039 28.0691 38.2206 27.957C38.5373 27.8535 38.7748 27.6637 38.9332 27.3878C39.1014 27.1204 39.1856 26.7496 39.1856 26.2753V25.3956C38.948 25.6629 38.6363 25.8872 38.2503 26.0683C37.8643 26.2408 37.3794 26.327 36.7955 26.327C36.2413 26.327 35.7662 26.2451 35.3703 26.0812C34.9745 25.9087 34.6479 25.6802 34.3905 25.3956C34.1431 25.1024 33.9551 24.7703 33.8264 24.3995C33.7077 24.0287 33.6384 23.6406 33.6186 23.2352C33.6087 22.9938 33.6087 22.7566 33.6186 22.5238C33.6384 22.1184 33.7077 21.7303 33.8264 21.3595C33.9551 20.9887 34.1431 20.6566 34.3905 20.3634C34.6479 20.0702 34.9745 19.8417 35.3703 19.6778C35.7662 19.5053 36.2413 19.4191 36.7955 19.4191C37.3893 19.4191 37.8792 19.5182 38.2652 19.7166C38.661 19.9063 38.9827 20.1392 39.2301 20.4152V19.8589C39.2301 19.7727 39.2598 19.6994 39.3192 19.639C39.3885 19.5786 39.4726 19.5484 39.5715 19.5484H40.2544C40.3534 19.5484 40.4375 19.5786 40.5068 19.639C40.5761 19.6994 40.6107 19.7727 40.6107 19.8589V26.133C40.6107 26.7108 40.4969 27.2239 40.2693 27.6724C40.0515 28.1208 39.6854 28.4744 39.1707 28.7331C38.666 28.9919 37.9831 29.1212 37.1221 29.1212ZM37.0924 25.2921C37.5872 25.2921 37.9831 25.1929 38.28 24.9946C38.5868 24.7962 38.8095 24.5461 38.948 24.2443C39.0965 23.9424 39.1757 23.6363 39.1856 23.3258C39.1955 23.2051 39.2004 23.0584 39.2004 22.886C39.2004 22.7049 39.1955 22.5539 39.1856 22.4332C39.1757 22.1227 39.0965 21.8166 38.948 21.5147C38.8095 21.2129 38.5868 20.9628 38.28 20.7644C37.9831 20.5661 37.5872 20.4669 37.0924 20.4669C36.5975 20.4669 36.2017 20.5661 35.9048 20.7644C35.6079 20.9542 35.3951 21.2086 35.2664 21.5277C35.1378 21.8381 35.0635 22.1745 35.0437 22.5367C35.0338 22.7609 35.0338 22.9895 35.0437 23.2223C35.0635 23.5845 35.1378 23.9252 35.2664 24.2443C35.3951 24.5547 35.6079 24.8091 35.9048 25.0075C36.2017 25.1972 36.5975 25.2921 37.0924 25.2921Z" fill="black"/>
<path d="M43.1593 26.2753C43.0604 26.2753 42.9763 26.2494 42.907 26.1976C42.8476 26.1373 42.8179 26.064 42.8179 25.9777V19.846C42.8179 19.7597 42.8476 19.6907 42.907 19.639C42.9763 19.5786 43.0604 19.5484 43.1593 19.5484H43.8719C43.9709 19.5484 44.0501 19.5786 44.1094 19.639C44.1688 19.6907 44.1985 19.7597 44.1985 19.846V25.9777C44.1985 26.064 44.1688 26.1373 44.1094 26.1976C44.0501 26.2494 43.9709 26.2753 43.8719 26.2753H43.1593ZM43.0406 18.2936C42.9416 18.2936 42.8575 18.2677 42.7882 18.216C42.7288 18.1556 42.6991 18.0823 42.6991 17.9961V17.2975C42.6991 17.2113 42.7288 17.1423 42.7882 17.0906C42.8575 17.0302 42.9416 17 43.0406 17H43.9758C44.0748 17 44.154 17.0302 44.2134 17.0906C44.2826 17.1423 44.3173 17.2113 44.3173 17.2975V17.9961C44.3173 18.0823 44.2826 18.1556 44.2134 18.216C44.154 18.2677 44.0748 18.2936 43.9758 18.2936H43.0406Z" fill="black"/>
<path d="M49.1002 26.2753C48.9518 26.2753 48.833 26.2451 48.7439 26.1847C48.6648 26.1243 48.6004 26.0467 48.551 25.9518L45.8046 19.9495C45.7848 19.9063 45.7749 19.8632 45.7749 19.8201C45.7749 19.7425 45.8046 19.6778 45.864 19.626C45.9233 19.5743 45.9976 19.5484 46.0866 19.5484H46.7992C46.9081 19.5484 46.9922 19.5743 47.0516 19.626C47.111 19.6778 47.1456 19.7252 47.1555 19.7683L49.4268 24.8652L51.6833 19.7683C51.7031 19.7252 51.7377 19.6778 51.7872 19.626C51.8466 19.5743 51.9307 19.5484 52.0396 19.5484H52.767C52.8462 19.5484 52.9155 19.5743 52.9749 19.626C53.0441 19.6778 53.0788 19.7425 53.0788 19.8201C53.0788 19.8632 53.0689 19.9063 53.0491 19.9495L50.2879 25.9518C50.2483 26.0467 50.1839 26.1243 50.0949 26.1847C50.0157 26.2451 49.8969 26.2753 49.7386 26.2753H49.1002Z" fill="black"/>
<path d="M57.4308 26.4046C56.4114 26.4046 55.5998 26.133 54.9961 25.5896C54.3924 25.0377 54.0609 24.2874 54.0015 23.3387C53.9916 23.2266 53.9866 23.0843 53.9866 22.9118C53.9866 22.7307 53.9916 22.5841 54.0015 22.472C54.0411 21.8597 54.2044 21.325 54.4914 20.8679C54.7784 20.4022 55.1693 20.0443 55.6642 19.7942C56.1689 19.5441 56.7578 19.4191 57.4308 19.4191C58.1829 19.4191 58.8114 19.5571 59.3161 19.833C59.8307 20.109 60.2217 20.5014 60.4889 21.0102C60.7561 21.519 60.8897 22.1141 60.8897 22.7954V23.0153C60.8897 23.1102 60.8551 23.1835 60.7858 23.2352C60.7264 23.287 60.6472 23.3129 60.5483 23.3129H55.4118C55.4118 23.3215 55.4118 23.3387 55.4118 23.3646C55.4118 23.3905 55.4118 23.412 55.4118 23.4293C55.4316 23.7829 55.5207 24.1149 55.679 24.4254C55.8374 24.7272 56.065 24.973 56.3619 25.1627C56.6588 25.3525 57.0151 25.4473 57.4308 25.4473C57.787 25.4473 58.0839 25.3999 58.3215 25.305C58.559 25.2102 58.752 25.1067 58.9004 24.9946C59.0489 24.8738 59.1479 24.7833 59.1973 24.7229C59.2864 24.6108 59.3557 24.5461 59.4052 24.5289C59.4547 24.503 59.5338 24.4901 59.6427 24.4901H60.3553C60.4542 24.4901 60.5334 24.5159 60.5928 24.5677C60.6621 24.6108 60.6918 24.6755 60.6819 24.7617C60.672 24.8911 60.5928 25.0506 60.4443 25.2404C60.2959 25.4215 60.0831 25.6026 59.806 25.7837C59.5289 25.9648 59.1924 26.1157 58.7965 26.2364C58.4006 26.3486 57.9454 26.4046 57.4308 26.4046ZM55.4118 22.4203H59.4794V22.3815C59.4794 21.9934 59.3953 21.6484 59.227 21.3466C59.0687 21.0447 58.8361 20.8076 58.5293 20.6351C58.2225 20.454 57.8563 20.3634 57.4308 20.3634C57.0052 20.3634 56.639 20.454 56.3322 20.6351C56.0353 20.8076 55.8077 21.0447 55.6493 21.3466C55.491 21.6484 55.4118 21.9934 55.4118 22.3815V22.4203Z" fill="black"/>
<path d="M69.3766 26.4046C68.3572 26.4046 67.5456 26.133 66.9419 25.5896C66.3382 25.0377 66.0067 24.2874 65.9473 23.3387C65.9374 23.2266 65.9324 23.0843 65.9324 22.9118C65.9324 22.7307 65.9374 22.5841 65.9473 22.472C65.9869 21.8597 66.1502 21.325 66.4372 20.8679C66.7242 20.4022 67.1151 20.0443 67.61 19.7942C68.1147 19.5441 68.7036 19.4191 69.3766 19.4191C70.1287 19.4191 70.7572 19.5571 71.2619 19.833C71.7765 20.109 72.1675 20.5014 72.4347 21.0102C72.7019 21.519 72.8355 22.1141 72.8355 22.7954V23.0153C72.8355 23.1102 72.8009 23.1835 72.7316 23.2352C72.6722 23.287 72.593 23.3129 72.4941 23.3129H67.3576C67.3576 23.3215 67.3576 23.3387 67.3576 23.3646C67.3576 23.3905 67.3576 23.412 67.3576 23.4293C67.3774 23.7829 67.4665 24.1149 67.6248 24.4254C67.7832 24.7272 68.0108 24.973 68.3077 25.1627C68.6046 25.3525 68.9609 25.4473 69.3766 25.4473C69.7328 25.4473 70.0297 25.3999 70.2673 25.305C70.5048 25.2102 70.6978 25.1067 70.8462 24.9946C70.9947 24.8738 71.0937 24.7833 71.1431 24.7229C71.2322 24.6108 71.3015 24.5461 71.351 24.5289C71.4005 24.503 71.4796 24.4901 71.5885 24.4901H72.3011C72.4 24.4901 72.4792 24.5159 72.5386 24.5677C72.6079 24.6108 72.6376 24.6755 72.6277 24.7617C72.6178 24.8911 72.5386 25.0506 72.3901 25.2404C72.2417 25.4215 72.0289 25.6026 71.7518 25.7837C71.4747 25.9648 71.1382 26.1157 70.7423 26.2364C70.3464 26.3486 69.8912 26.4046 69.3766 26.4046ZM67.3576 22.4203H71.4252V22.3815C71.4252 21.9934 71.3411 21.6484 71.1728 21.3466C71.0145 21.0447 70.7819 20.8076 70.4751 20.6351C70.1683 20.454 69.8021 20.3634 69.3766 20.3634C68.951 20.3634 68.5848 20.454 68.278 20.6351C67.9811 20.8076 67.7535 21.0447 67.5951 21.3466C67.4368 21.6484 67.3576 21.9934 67.3576 22.3815V22.4203Z" fill="black"/>
<path d="M77.0366 26.2753C76.8881 26.2753 76.7694 26.2451 76.6803 26.1847C76.6011 26.1243 76.5368 26.0467 76.4873 25.9518L73.7409 19.9495C73.7212 19.9063 73.7113 19.8632 73.7113 19.8201C73.7113 19.7425 73.7409 19.6778 73.8003 19.626C73.8597 19.5743 73.9339 19.5484 74.023 19.5484H74.7356C74.8444 19.5484 74.9286 19.5743 74.9879 19.626C75.0473 19.6778 75.082 19.7252 75.0919 19.7683L77.3632 24.8652L79.6197 19.7683C79.6395 19.7252 79.6741 19.6778 79.7236 19.626C79.783 19.5743 79.8671 19.5484 79.976 19.5484H80.7034C80.7826 19.5484 80.8518 19.5743 80.9112 19.626C80.9805 19.6778 81.0151 19.7425 81.0151 19.8201C81.0151 19.8632 81.0052 19.9063 80.9854 19.9495L78.2242 25.9518C78.1846 26.0467 78.1203 26.1243 78.0312 26.1847C77.9521 26.2451 77.8333 26.2753 77.6749 26.2753H77.0366Z" fill="black"/>
<path d="M85.3671 26.4046C84.3477 26.4046 83.5362 26.133 82.9325 25.5896C82.3288 25.0377 81.9972 24.2874 81.9379 23.3387C81.928 23.2266 81.923 23.0843 81.923 22.9118C81.923 22.7307 81.928 22.5841 81.9379 22.472C81.9774 21.8597 82.1407 21.325 82.4277 20.8679C82.7148 20.4022 83.1057 20.0443 83.6005 19.7942C84.1053 19.5441 84.6941 19.4191 85.3671 19.4191C86.1193 19.4191 86.7477 19.5571 87.2525 19.833C87.7671 20.109 88.158 20.5014 88.4252 21.0102C88.6925 21.519 88.8261 22.1141 88.8261 22.7954V23.0153C88.8261 23.1102 88.7914 23.1835 88.7221 23.2352C88.6628 23.287 88.5836 23.3129 88.4846 23.3129H83.3482C83.3482 23.3215 83.3482 23.3387 83.3482 23.3646C83.3482 23.3905 83.3482 23.412 83.3482 23.4293C83.3679 23.7829 83.457 24.1149 83.6154 24.4254C83.7737 24.7272 84.0013 24.973 84.2983 25.1627C84.5952 25.3525 84.9514 25.4473 85.3671 25.4473C85.7234 25.4473 86.0203 25.3999 86.2578 25.305C86.4954 25.2102 86.6883 25.1067 86.8368 24.9946C86.9852 24.8738 87.0842 24.7833 87.1337 24.7229C87.2228 24.6108 87.292 24.5461 87.3415 24.5289C87.391 24.503 87.4702 24.4901 87.5791 24.4901H88.2916C88.3906 24.4901 88.4698 24.5159 88.5292 24.5677C88.5984 24.6108 88.6281 24.6755 88.6182 24.7617C88.6083 24.8911 88.5292 25.0506 88.3807 25.2404C88.2322 25.4215 88.0195 25.6026 87.7424 25.7837C87.4652 25.9648 87.1287 26.1157 86.7329 26.2364C86.337 26.3486 85.8817 26.4046 85.3671 26.4046ZM83.3482 22.4203H87.4158V22.3815C87.4158 21.9934 87.3316 21.6484 87.1634 21.3466C87.005 21.0447 86.7725 20.8076 86.4657 20.6351C86.1589 20.454 85.7927 20.3634 85.3671 20.3634C84.9415 20.3634 84.5754 20.454 84.2686 20.6351C83.9717 20.8076 83.744 21.0447 83.5857 21.3466C83.4273 21.6484 83.3482 21.9934 83.3482 22.3815V22.4203Z" fill="black"/>
<path d="M90.9426 26.2753C90.8436 26.2753 90.7595 26.2494 90.6902 26.1976C90.6308 26.1373 90.6011 26.064 90.6011 25.9777V19.8589C90.6011 19.7727 90.6308 19.6994 90.6902 19.639C90.7595 19.5786 90.8436 19.5484 90.9426 19.5484H91.6254C91.7244 19.5484 91.8085 19.5786 91.8778 19.639C91.9471 19.6994 91.9817 19.7727 91.9817 19.8589V20.4281C92.1797 20.1349 92.4518 19.915 92.7982 19.7683C93.1446 19.6217 93.5603 19.5484 94.0452 19.5484H94.639C94.738 19.5484 94.8172 19.5786 94.8765 19.639C94.9359 19.6907 94.9656 19.7597 94.9656 19.846V20.3763C94.9656 20.4626 94.9359 20.5316 94.8765 20.5833C94.8172 20.6351 94.738 20.6609 94.639 20.6609H93.7483C93.2139 20.6609 92.7933 20.7989 92.4865 21.0749C92.1797 21.3422 92.0263 21.7088 92.0263 22.1745V25.9777C92.0263 26.064 91.9916 26.1373 91.9223 26.1976C91.8531 26.2494 91.7689 26.2753 91.67 26.2753H90.9426Z" fill="black"/>
<path d="M97.5915 28.7331C97.5123 28.7331 97.443 28.7073 97.3837 28.6555C97.3243 28.6038 97.2946 28.5434 97.2946 28.4744C97.2946 28.4399 97.2995 28.4054 97.3094 28.3709C97.3193 28.3364 97.3391 28.2933 97.3688 28.2416L98.5119 25.8742L95.6765 20.04C95.627 19.9365 95.6022 19.8632 95.6022 19.8201C95.6022 19.7425 95.6319 19.6778 95.6913 19.626C95.7507 19.5743 95.8249 19.5484 95.914 19.5484H96.6414C96.7404 19.5484 96.8195 19.57 96.8789 19.6131C96.9383 19.6562 96.9779 19.708 96.9977 19.7683L99.2542 24.4771L101.57 19.7683C101.6 19.708 101.639 19.6562 101.689 19.6131C101.748 19.57 101.832 19.5484 101.941 19.5484H102.639C102.728 19.5484 102.802 19.5743 102.862 19.626C102.921 19.6778 102.951 19.7382 102.951 19.8072C102.951 19.8503 102.926 19.9279 102.876 20.04L98.6604 28.5132C98.6307 28.5736 98.5861 28.6253 98.5267 28.6684C98.4773 28.7116 98.3981 28.7331 98.2892 28.7331H97.5915Z" fill="black"/>
<path d="M106.977 26.4046C106.432 26.4046 105.962 26.3227 105.566 26.1588C105.171 25.9863 104.844 25.7578 104.587 25.4732C104.339 25.18 104.151 24.848 104.023 24.4771C103.904 24.1063 103.834 23.7139 103.815 23.2999C103.805 23.1619 103.8 23.0326 103.8 22.9118C103.8 22.7911 103.805 22.6617 103.815 22.5238C103.834 22.1184 103.904 21.7303 104.023 21.3595C104.151 20.9887 104.339 20.6566 104.587 20.3634C104.844 20.0702 105.171 19.8417 105.566 19.6778C105.962 19.5053 106.432 19.4191 106.977 19.4191C107.561 19.4191 108.046 19.5096 108.432 19.6907C108.818 19.8718 109.134 20.0961 109.382 20.3634V17.3881C109.382 17.3018 109.411 17.2329 109.471 17.1811C109.54 17.1207 109.624 17.0906 109.723 17.0906H110.436C110.535 17.0906 110.614 17.1207 110.673 17.1811C110.742 17.2329 110.777 17.3018 110.777 17.3881V25.9777C110.777 26.064 110.742 26.1373 110.673 26.1976C110.614 26.2494 110.535 26.2753 110.436 26.2753H109.768C109.659 26.2753 109.575 26.2494 109.515 26.1976C109.456 26.1373 109.426 26.064 109.426 25.9777V25.4344C109.179 25.7104 108.857 25.9432 108.461 26.133C108.065 26.3141 107.571 26.4046 106.977 26.4046ZM107.288 25.3568C107.783 25.3568 108.179 25.2576 108.476 25.0592C108.773 24.8609 108.996 24.6108 109.144 24.3089C109.293 23.9985 109.372 23.6837 109.382 23.3646C109.392 23.2266 109.396 23.0628 109.396 22.873C109.396 22.6747 109.392 22.5065 109.382 22.3685C109.372 22.0667 109.288 21.7691 109.129 21.4759C108.981 21.1827 108.753 20.9412 108.446 20.7515C108.149 20.5618 107.764 20.4669 107.288 20.4669C106.784 20.4669 106.383 20.5661 106.086 20.7644C105.789 20.9542 105.576 21.2086 105.448 21.5277C105.319 21.8381 105.245 22.1745 105.225 22.5367C105.215 22.7868 105.215 23.0369 105.225 23.287C105.245 23.6492 105.319 23.9899 105.448 24.3089C105.576 24.6194 105.789 24.8738 106.086 25.0722C106.383 25.2619 106.784 25.3568 107.288 25.3568Z" fill="black"/>
<path d="M115.138 26.4046C114.643 26.4046 114.192 26.3184 113.787 26.1459C113.381 25.9734 113.054 25.7406 112.807 25.4473C112.559 25.1541 112.436 24.8221 112.436 24.4512C112.436 23.8562 112.713 23.3819 113.267 23.0283C113.821 22.6747 114.544 22.4418 115.434 22.3297L117.646 22.0581V21.6829C117.646 21.2689 117.508 20.9455 117.231 20.7127C116.964 20.4798 116.523 20.3634 115.91 20.3634C115.464 20.3634 115.103 20.441 114.826 20.5963C114.559 20.7515 114.371 20.9499 114.262 21.1913C114.202 21.3207 114.098 21.3854 113.95 21.3854H113.282C113.173 21.3854 113.089 21.3595 113.03 21.3078C112.98 21.2474 112.955 21.1784 112.955 21.1008C112.955 20.9714 113.01 20.8119 113.119 20.6221C113.237 20.4324 113.416 20.247 113.653 20.0659C113.891 19.8848 114.192 19.7338 114.559 19.6131C114.935 19.4837 115.39 19.4191 115.924 19.4191C116.518 19.4191 117.018 19.4881 117.424 19.626C117.83 19.7554 118.146 19.9322 118.374 20.1564C118.611 20.3807 118.78 20.6351 118.879 20.9197C118.987 21.2043 119.042 21.4932 119.042 21.7864V25.9777C119.042 26.064 119.007 26.1373 118.938 26.1976C118.879 26.2494 118.799 26.2753 118.7 26.2753H118.018C117.909 26.2753 117.825 26.2494 117.765 26.1976C117.706 26.1373 117.676 26.064 117.676 25.9777V25.4215C117.547 25.5767 117.374 25.7319 117.157 25.8872C116.939 26.0338 116.667 26.1588 116.34 26.2623C116.013 26.3572 115.613 26.4046 115.138 26.4046ZM115.449 25.4344C115.855 25.4344 116.226 25.3611 116.563 25.2145C116.899 25.0592 117.161 24.8221 117.349 24.503C117.547 24.1839 117.646 23.7829 117.646 23.2999V22.9377L115.924 23.1576C115.222 23.2439 114.692 23.3905 114.336 23.5975C113.98 23.7958 113.801 24.0502 113.801 24.3607C113.801 24.6022 113.881 24.8048 114.039 24.9687C114.207 25.1239 114.415 25.2404 114.663 25.318C114.92 25.3956 115.182 25.4344 115.449 25.4344Z" fill="black"/>
<path d="M122.367 28.7331C122.288 28.7331 122.219 28.7073 122.16 28.6555C122.1 28.6038 122.071 28.5434 122.071 28.4744C122.071 28.4399 122.075 28.4054 122.085 28.3709C122.095 28.3364 122.115 28.2933 122.145 28.2416L123.288 25.8742L120.452 20.04C120.403 19.9365 120.378 19.8632 120.378 19.8201C120.378 19.7425 120.408 19.6778 120.467 19.626C120.527 19.5743 120.601 19.5484 120.69 19.5484H121.417C121.516 19.5484 121.595 19.57 121.655 19.6131C121.714 19.6562 121.754 19.708 121.774 19.7683L124.03 24.4771L126.346 19.7683C126.376 19.708 126.415 19.6562 126.465 19.6131C126.524 19.57 126.608 19.5484 126.717 19.5484H127.415C127.504 19.5484 127.578 19.5743 127.638 19.626C127.697 19.6778 127.727 19.7382 127.727 19.8072C127.727 19.8503 127.702 19.9279 127.652 20.04L123.436 28.5132C123.407 28.5736 123.362 28.6253 123.303 28.6684C123.253 28.7116 123.174 28.7331 123.065 28.7331H122.367Z" fill="black"/>
<path d="M128.59 26.2753C128.491 26.2753 128.407 26.2494 128.337 26.1976C128.278 26.1373 128.248 26.064 128.248 25.9777V25.0463C128.248 24.9601 128.278 24.8911 128.337 24.8393C128.407 24.779 128.491 24.7488 128.59 24.7488H129.659C129.758 24.7488 129.837 24.779 129.896 24.8393C129.965 24.8911 130 24.9601 130 25.0463V25.9777C130 26.064 129.965 26.1373 129.896 26.1976C129.837 26.2494 129.758 26.2753 129.659 26.2753H128.59Z" fill="black"/>
</svg>
