<svg width="64" height="65" viewBox="0 0 64 65" fill="none" xmlns="http://www.w3.org/2000/svg">
<rect width="64" height="65" rx="16" fill="white"/>
<mask id="path-2-inside-1_20_129" fill="white">
<path d="M44.9008 34.3013C45.9591 34.7927 47.2298 34.3355 47.5805 33.2226C48.5809 30.0476 48.5912 26.6243 47.5813 23.4172C46.3587 19.5346 43.7292 16.2491 40.2088 14.2055C36.6884 12.1619 32.5313 11.5079 28.5535 12.3716C24.5756 13.2354 21.0642 15.5547 18.7084 18.8742C16.3526 22.1938 15.3225 26.274 15.8202 30.314C16.318 34.354 18.3077 38.0621 21.3988 40.7105C24.4899 43.359 28.4592 44.7566 32.5278 44.629C35.8885 44.5236 39.1166 43.3838 41.7833 41.3914C42.718 40.693 42.7301 39.3426 41.9169 38.5058C41.1037 37.669 39.7741 37.6684 38.8087 38.3238C36.9234 39.6037 34.7015 40.3333 32.3953 40.4056C29.3803 40.5001 26.4387 39.4645 24.148 37.5018C21.8573 35.5391 20.3829 32.7912 20.014 29.7973C19.6451 26.8034 20.4085 23.7797 22.1543 21.3197C23.9001 18.8597 26.5023 17.141 29.4501 16.5009C32.3979 15.8608 35.4786 16.3455 38.0874 17.8599C40.6962 19.3743 42.6449 21.8091 43.5509 24.6863C44.2439 26.8871 44.2887 29.2252 43.7029 31.4274C43.4029 32.555 43.8425 33.8099 44.9008 34.3013Z"/>
</mask>
<path d="M44.9008 34.3013C45.9591 34.7927 47.2298 34.3355 47.5805 33.2226C48.5809 30.0476 48.5912 26.6243 47.5813 23.4172C46.3587 19.5346 43.7292 16.2491 40.2088 14.2055C36.6884 12.1619 32.5313 11.5079 28.5535 12.3716C24.5756 13.2354 21.0642 15.5547 18.7084 18.8742C16.3526 22.1938 15.3225 26.274 15.8202 30.314C16.318 34.354 18.3077 38.0621 21.3988 40.7105C24.4899 43.359 28.4592 44.7566 32.5278 44.629C35.8885 44.5236 39.1166 43.3838 41.7833 41.3914C42.718 40.693 42.7301 39.3426 41.9169 38.5058C41.1037 37.669 39.7741 37.6684 38.8087 38.3238C36.9234 39.6037 34.7015 40.3333 32.3953 40.4056C29.3803 40.5001 26.4387 39.4645 24.148 37.5018C21.8573 35.5391 20.3829 32.7912 20.014 29.7973C19.6451 26.8034 20.4085 23.7797 22.1543 21.3197C23.9001 18.8597 26.5023 17.141 29.4501 16.5009C32.3979 15.8608 35.4786 16.3455 38.0874 17.8599C40.6962 19.3743 42.6449 21.8091 43.5509 24.6863C44.2439 26.8871 44.2887 29.2252 43.7029 31.4274C43.4029 32.555 43.8425 33.8099 44.9008 34.3013Z" stroke="black" stroke-width="17.2" mask="url(#path-2-inside-1_20_129)"/>
<path fill-rule="evenodd" clip-rule="evenodd" d="M30.4971 25.261C31.5162 24.6588 32.7839 24.6655 33.7966 25.2784L51.359 35.9083C52.3211 36.4906 52.9089 37.5335 52.9089 38.6581V49.0875C52.9089 50.8627 51.4698 52.3018 49.6946 52.3018H14.2143C12.4391 52.3018 11 50.8627 11 49.0875V38.6661C11 37.5302 11.5996 36.4786 12.5772 35.9L16.7728 33.4169L16.7692 33.4108L18.0364 32.6691C18.9776 32.1182 20.1871 32.433 20.7403 33.3728C21.2935 34.3126 20.9816 35.5229 20.0431 36.0784L14.956 39.0891V48.3458H48.9529V39.0762L32.1277 28.8925L27.7067 31.5049C26.7662 32.0607 25.5532 31.7488 24.9975 30.8083C24.4417 29.8678 24.7536 28.6548 25.6941 28.0991L30.4971 25.261Z" fill="black"/>
</svg>
