<svg width="24" height="24" viewBox="0 0 24 24" fill="none" xmlns="http://www.w3.org/2000/svg">
<rect width="24" height="24" rx="4" fill="url(#paint0_linear_202_15)"/>
<g filter="url(#filter0_f_202_15)">
<rect x="8.5" y="3.25" width="10.5" height="14" rx="1" fill="url(#paint1_linear_202_15)"/>
</g>
<g filter="url(#filter1_df_202_15)">
<rect x="6.75" y="5" width="10.5" height="14" rx="1" fill="url(#paint2_linear_202_15)"/>
</g>
<g filter="url(#filter2_bd_202_15)">
<rect x="5" y="6.75" width="10.5" height="14" rx="1" fill="url(#paint3_linear_202_15)" shape-rendering="crispEdges"/>
<rect x="5.1" y="6.85" width="10.3" height="13.8" rx="0.9" stroke="url(#paint4_linear_202_15)" stroke-width="0.2" shape-rendering="crispEdges"/>
</g>
<g filter="url(#filter3_d_202_15)">
<path d="M6.75 9.8125C6.75 9.57088 6.94588 9.375 7.1875 9.375H13.3125C13.5541 9.375 13.75 9.57088 13.75 9.8125C13.75 10.0541 13.5541 10.25 13.3125 10.25H7.1875C6.94588 10.25 6.75 10.0541 6.75 9.8125Z" fill="white"/>
<path d="M6.75 12.4375C6.75 12.1959 6.94588 12 7.1875 12H13.3125C13.5541 12 13.75 12.1959 13.75 12.4375C13.75 12.6791 13.5541 12.875 13.3125 12.875H7.1875C6.94588 12.875 6.75 12.6791 6.75 12.4375Z" fill="white"/>
<path d="M6.75 15.0625C6.75 14.8209 6.94588 14.625 7.1875 14.625H10.6875C10.9291 14.625 11.125 14.8209 11.125 15.0625C11.125 15.3041 10.9291 15.5 10.6875 15.5H7.1875C6.94588 15.5 6.75 15.3041 6.75 15.0625Z" fill="white"/>
</g>
<defs>
<filter id="filter0_f_202_15" x="8.3" y="3.05" width="10.9" height="14.4" filterUnits="userSpaceOnUse" color-interpolation-filters="sRGB">
<feFlood flood-opacity="0" result="BackgroundImageFix"/>
<feBlend mode="normal" in="SourceGraphic" in2="BackgroundImageFix" result="shape"/>
<feGaussianBlur stdDeviation="0.1" result="effect1_foregroundBlur_202_15"/>
</filter>
<filter id="filter1_df_202_15" x="2.75" y="1" width="18.5" height="22" filterUnits="userSpaceOnUse" color-interpolation-filters="sRGB">
<feFlood flood-opacity="0" result="BackgroundImageFix"/>
<feColorMatrix in="SourceAlpha" type="matrix" values="0 0 0 0 0 0 0 0 0 0 0 0 0 0 0 0 0 0 127 0" result="hardAlpha"/>
<feOffset/>
<feGaussianBlur stdDeviation="2"/>
<feComposite in2="hardAlpha" operator="out"/>
<feColorMatrix type="matrix" values="0 0 0 0 0 0 0 0 0 0 0 0 0 0 0 0 0 0 0.25 0"/>
<feBlend mode="normal" in2="BackgroundImageFix" result="effect1_dropShadow_202_15"/>
<feBlend mode="normal" in="SourceGraphic" in2="effect1_dropShadow_202_15" result="shape"/>
<feGaussianBlur stdDeviation="0.05" result="effect2_foregroundBlur_202_15"/>
</filter>
<filter id="filter2_bd_202_15" x="3" y="4.75" width="14.5" height="18" filterUnits="userSpaceOnUse" color-interpolation-filters="sRGB">
<feFlood flood-opacity="0" result="BackgroundImageFix"/>
<feGaussianBlur in="BackgroundImageFix" stdDeviation="1"/>
<feComposite in2="SourceAlpha" operator="in" result="effect1_backgroundBlur_202_15"/>
<feColorMatrix in="SourceAlpha" type="matrix" values="0 0 0 0 0 0 0 0 0 0 0 0 0 0 0 0 0 0 127 0" result="hardAlpha"/>
<feOffset/>
<feGaussianBlur stdDeviation="0.5"/>
<feComposite in2="hardAlpha" operator="out"/>
<feColorMatrix type="matrix" values="0 0 0 0 0 0 0 0 0 0 0 0 0 0 0 0 0 0 0.1 0"/>
<feBlend mode="normal" in2="effect1_backgroundBlur_202_15" result="effect2_dropShadow_202_15"/>
<feBlend mode="normal" in="SourceGraphic" in2="effect2_dropShadow_202_15" result="shape"/>
</filter>
<filter id="filter3_d_202_15" x="5.75" y="8.375" width="9" height="8.125" filterUnits="userSpaceOnUse" color-interpolation-filters="sRGB">
<feFlood flood-opacity="0" result="BackgroundImageFix"/>
<feColorMatrix in="SourceAlpha" type="matrix" values="0 0 0 0 0 0 0 0 0 0 0 0 0 0 0 0 0 0 127 0" result="hardAlpha"/>
<feOffset/>
<feGaussianBlur stdDeviation="0.5"/>
<feComposite in2="hardAlpha" operator="out"/>
<feColorMatrix type="matrix" values="0 0 0 0 0 0 0 0 0 0 0 0 0 0 0 0 0 0 0.1 0"/>
<feBlend mode="normal" in2="BackgroundImageFix" result="effect1_dropShadow_202_15"/>
<feBlend mode="normal" in="SourceGraphic" in2="effect1_dropShadow_202_15" result="shape"/>
</filter>
<linearGradient id="paint0_linear_202_15" x1="12" y1="0" x2="12" y2="24" gradientUnits="userSpaceOnUse">
<stop stop-color="#161616"/>
<stop offset="1" stop-color="#2B2B2B"/>
</linearGradient>
<linearGradient id="paint1_linear_202_15" x1="8.5" y1="17.25" x2="17.25" y2="5.875" gradientUnits="userSpaceOnUse">
<stop stop-color="#550097"/>
<stop offset="1" stop-color="#B145F3"/>
</linearGradient>
<linearGradient id="paint2_linear_202_15" x1="6.75" y1="19" x2="20.75" y2="0.625" gradientUnits="userSpaceOnUse">
<stop stop-color="#C073FD"/>
<stop offset="1" stop-color="#740AC7"/>
</linearGradient>
<linearGradient id="paint3_linear_202_15" x1="10.25" y1="6.75" x2="10.25" y2="20.75" gradientUnits="userSpaceOnUse">
<stop stop-color="white" stop-opacity="0.5"/>
<stop offset="1" stop-color="#EDEEFF" stop-opacity="0.2"/>
<stop offset="1" stop-color="white" stop-opacity="0.2"/>
</linearGradient>
<linearGradient id="paint4_linear_202_15" x1="5" y1="6.75" x2="16.3081" y2="19.7184" gradientUnits="userSpaceOnUse">
<stop stop-color="white"/>
<stop offset="1" stop-color="white" stop-opacity="0"/>
</linearGradient>
</defs>
</svg>
